<mxfile host="65bd71144e">
    <diagram id="5o8bM8-QLdAC3v31qYS7" name="Page-1">
        <mxGraphModel dx="1449" dy="747" grid="1" gridSize="10" guides="1" tooltips="1" connect="1" arrows="1" fold="1" page="1" pageScale="1" pageWidth="827" pageHeight="1169" math="0" shadow="0">
            <root>
                <mxCell id="0"/>
                <mxCell id="1" parent="0"/>
                <mxCell id="180" value="" style="whiteSpace=wrap;html=1;" parent="1" vertex="1">
                    <mxGeometry x="80" y="1679" width="120" height="241" as="geometry"/>
                </mxCell>
                <mxCell id="299" value="" style="whiteSpace=wrap;html=1;" parent="1" vertex="1">
                    <mxGeometry x="1500" y="680" width="120" height="40" as="geometry"/>
                </mxCell>
                <mxCell id="287" value="" style="whiteSpace=wrap;html=1;" parent="1" vertex="1">
                    <mxGeometry x="1290" y="680" width="120" height="40" as="geometry"/>
                </mxCell>
                <mxCell id="97" style="edgeStyle=none;html=1;exitX=0.5;exitY=1;exitDx=0;exitDy=0;entryX=0.5;entryY=0;entryDx=0;entryDy=0;" parent="1" source="2" target="9" edge="1">
                    <mxGeometry relative="1" as="geometry"/>
                </mxCell>
                <mxCell id="2" value="" style="whiteSpace=wrap;html=1;" parent="1" vertex="1">
                    <mxGeometry x="410" y="30" width="120" height="40" as="geometry"/>
                </mxCell>
                <mxCell id="3" value="Main.jsx" style="text;strokeColor=none;align=center;fillColor=none;html=1;verticalAlign=middle;whiteSpace=wrap;rounded=0;" parent="1" vertex="1">
                    <mxGeometry x="440" y="35" width="60" height="30" as="geometry"/>
                </mxCell>
                <mxCell id="9" value="" style="whiteSpace=wrap;html=1;" parent="1" vertex="1">
                    <mxGeometry x="410" y="220" width="120" height="40" as="geometry"/>
                </mxCell>
                <mxCell id="10" value="Landing.jsx" style="text;strokeColor=none;align=center;fillColor=none;html=1;verticalAlign=middle;whiteSpace=wrap;rounded=0;" parent="1" vertex="1">
                    <mxGeometry x="440" y="225" width="60" height="30" as="geometry"/>
                </mxCell>
                <mxCell id="22" style="edgeStyle=none;html=1;exitX=1;exitY=0.5;exitDx=0;exitDy=0;entryX=0;entryY=0.5;entryDx=0;entryDy=0;" parent="1" source="13" target="15" edge="1">
                    <mxGeometry relative="1" as="geometry"/>
                </mxCell>
                <mxCell id="13" value="" style="whiteSpace=wrap;html=1;" parent="1" vertex="1">
                    <mxGeometry x="310" y="310" width="120" height="40" as="geometry"/>
                </mxCell>
                <mxCell id="14" value="SignUp.jsx" style="text;strokeColor=none;align=center;fillColor=none;html=1;verticalAlign=middle;whiteSpace=wrap;rounded=0;" parent="1" vertex="1">
                    <mxGeometry x="340" y="315" width="60" height="30" as="geometry"/>
                </mxCell>
                <mxCell id="184" style="edgeStyle=none;html=1;exitX=1;exitY=0.5;exitDx=0;exitDy=0;entryX=0;entryY=0.5;entryDx=0;entryDy=0;fontSize=18;" parent="1" source="15" target="182" edge="1">
                    <mxGeometry relative="1" as="geometry"/>
                </mxCell>
                <mxCell id="15" value="" style="whiteSpace=wrap;html=1;" parent="1" vertex="1">
                    <mxGeometry x="510" y="310" width="120" height="40" as="geometry"/>
                </mxCell>
                <mxCell id="380" style="edgeStyle=none;html=1;entryX=0.5;entryY=0;entryDx=0;entryDy=0;" parent="1" target="23" edge="1">
                    <mxGeometry relative="1" as="geometry">
                        <mxPoint x="570" y="350" as="sourcePoint"/>
                        <Array as="points">
                            <mxPoint x="570" y="390"/>
                        </Array>
                    </mxGeometry>
                </mxCell>
                <mxCell id="16" value="Login.jsx" style="text;strokeColor=none;align=center;fillColor=none;html=1;verticalAlign=middle;whiteSpace=wrap;rounded=0;" parent="1" vertex="1">
                    <mxGeometry x="540" y="315" width="60" height="30" as="geometry"/>
                </mxCell>
                <mxCell id="23" value="" style="whiteSpace=wrap;html=1;" parent="1" vertex="1">
                    <mxGeometry x="510" y="480" width="120" height="40" as="geometry"/>
                </mxCell>
                <mxCell id="24" value="Home.jsx" style="text;strokeColor=none;align=center;fillColor=none;html=1;verticalAlign=middle;whiteSpace=wrap;rounded=0;" parent="1" vertex="1">
                    <mxGeometry x="540" y="485" width="60" height="30" as="geometry"/>
                </mxCell>
                <mxCell id="26" value="" style="whiteSpace=wrap;html=1;" parent="1" vertex="1">
                    <mxGeometry x="40" y="560" width="120" height="40" as="geometry"/>
                </mxCell>
                <mxCell id="27" value="Calendar.jsx" style="text;strokeColor=none;align=center;fillColor=none;html=1;verticalAlign=middle;whiteSpace=wrap;rounded=0;" parent="1" vertex="1">
                    <mxGeometry x="70" y="565" width="60" height="30" as="geometry"/>
                </mxCell>
                <mxCell id="28" value="" style="whiteSpace=wrap;html=1;" parent="1" vertex="1">
                    <mxGeometry x="190" y="560" width="120" height="40" as="geometry"/>
                </mxCell>
                <mxCell id="29" value="List.jsx" style="text;strokeColor=none;align=center;fillColor=none;html=1;verticalAlign=middle;whiteSpace=wrap;rounded=0;" parent="1" vertex="1">
                    <mxGeometry x="220" y="565" width="60" height="30" as="geometry"/>
                </mxCell>
                <mxCell id="30" value="" style="whiteSpace=wrap;html=1;" parent="1" vertex="1">
                    <mxGeometry x="340" y="560" width="120" height="40" as="geometry"/>
                </mxCell>
                <mxCell id="31" value="Budget.jsx" style="text;strokeColor=none;align=center;fillColor=none;html=1;verticalAlign=middle;whiteSpace=wrap;rounded=0;" parent="1" vertex="1">
                    <mxGeometry x="370" y="565" width="60" height="30" as="geometry"/>
                </mxCell>
                <mxCell id="32" value="" style="whiteSpace=wrap;html=1;" parent="1" vertex="1">
                    <mxGeometry x="490" y="560" width="120" height="40" as="geometry"/>
                </mxCell>
                <mxCell id="33" value="DocShare.jsx" style="text;strokeColor=none;align=center;fillColor=none;html=1;verticalAlign=middle;whiteSpace=wrap;rounded=0;" parent="1" vertex="1">
                    <mxGeometry x="520" y="565" width="60" height="30" as="geometry"/>
                </mxCell>
                <mxCell id="34" value="" style="whiteSpace=wrap;html=1;" parent="1" vertex="1">
                    <mxGeometry x="640" y="560" width="120" height="40" as="geometry"/>
                </mxCell>
                <mxCell id="35" value="Chat.jsx" style="text;strokeColor=none;align=center;fillColor=none;html=1;verticalAlign=middle;whiteSpace=wrap;rounded=0;" parent="1" vertex="1">
                    <mxGeometry x="670" y="565" width="60" height="30" as="geometry"/>
                </mxCell>
                <mxCell id="36" value="" style="whiteSpace=wrap;html=1;" parent="1" vertex="1">
                    <mxGeometry x="790" y="560" width="120" height="40" as="geometry"/>
                </mxCell>
                <mxCell id="37" value="Recipe.jsx" style="text;strokeColor=none;align=center;fillColor=none;html=1;verticalAlign=middle;whiteSpace=wrap;rounded=0;" parent="1" vertex="1">
                    <mxGeometry x="820" y="565" width="60" height="30" as="geometry"/>
                </mxCell>
                <mxCell id="38" style="edgeStyle=orthogonalEdgeStyle;html=1;exitX=0.5;exitY=1;exitDx=0;exitDy=0;entryX=0.5;entryY=0;entryDx=0;entryDy=0;" parent="1" source="23" target="26" edge="1">
                    <mxGeometry relative="1" as="geometry">
                        <mxPoint x="580" y="535" as="sourcePoint"/>
                        <mxPoint x="480" y="565" as="targetPoint"/>
                    </mxGeometry>
                </mxCell>
                <mxCell id="39" style="edgeStyle=orthogonalEdgeStyle;html=1;exitX=0.5;exitY=1;exitDx=0;exitDy=0;" parent="1" source="23" edge="1">
                    <mxGeometry relative="1" as="geometry">
                        <mxPoint x="580" y="530" as="sourcePoint"/>
                        <mxPoint x="250" y="560" as="targetPoint"/>
                        <Array as="points">
                            <mxPoint x="570" y="540"/>
                            <mxPoint x="250" y="540"/>
                        </Array>
                    </mxGeometry>
                </mxCell>
                <mxCell id="40" style="edgeStyle=orthogonalEdgeStyle;html=1;entryX=0.5;entryY=0;entryDx=0;entryDy=0;" parent="1" target="30" edge="1">
                    <mxGeometry relative="1" as="geometry">
                        <mxPoint x="570" y="520" as="sourcePoint"/>
                        <mxPoint x="390" y="560" as="targetPoint"/>
                        <Array as="points">
                            <mxPoint x="570" y="540"/>
                            <mxPoint x="400" y="540"/>
                        </Array>
                    </mxGeometry>
                </mxCell>
                <mxCell id="45" style="edgeStyle=orthogonalEdgeStyle;html=1;entryX=0.5;entryY=0;entryDx=0;entryDy=0;" parent="1" target="32" edge="1">
                    <mxGeometry relative="1" as="geometry">
                        <mxPoint x="570" y="520" as="sourcePoint"/>
                        <mxPoint x="400" y="560" as="targetPoint"/>
                        <Array as="points">
                            <mxPoint x="570" y="540"/>
                            <mxPoint x="550" y="540"/>
                        </Array>
                    </mxGeometry>
                </mxCell>
                <mxCell id="46" style="edgeStyle=orthogonalEdgeStyle;html=1;entryX=0.5;entryY=0;entryDx=0;entryDy=0;" parent="1" target="34" edge="1">
                    <mxGeometry relative="1" as="geometry">
                        <mxPoint x="570" y="520" as="sourcePoint"/>
                        <mxPoint x="560" y="570" as="targetPoint"/>
                        <Array as="points">
                            <mxPoint x="570" y="540"/>
                            <mxPoint x="700" y="540"/>
                        </Array>
                    </mxGeometry>
                </mxCell>
                <mxCell id="48" style="edgeStyle=orthogonalEdgeStyle;html=1;entryX=0.5;entryY=0;entryDx=0;entryDy=0;" parent="1" edge="1">
                    <mxGeometry relative="1" as="geometry">
                        <mxPoint x="570" y="520" as="sourcePoint"/>
                        <mxPoint x="850" y="560" as="targetPoint"/>
                        <Array as="points">
                            <mxPoint x="570" y="520"/>
                            <mxPoint x="570" y="540"/>
                            <mxPoint x="850" y="540"/>
                        </Array>
                    </mxGeometry>
                </mxCell>
                <mxCell id="49" value="" style="whiteSpace=wrap;html=1;" parent="1" vertex="1">
                    <mxGeometry x="940" y="560" width="120" height="40" as="geometry"/>
                </mxCell>
                <mxCell id="50" value="Contact.jsx" style="text;strokeColor=none;align=center;fillColor=none;html=1;verticalAlign=middle;whiteSpace=wrap;rounded=0;" parent="1" vertex="1">
                    <mxGeometry x="970" y="565" width="60" height="30" as="geometry"/>
                </mxCell>
                <mxCell id="51" value="" style="whiteSpace=wrap;html=1;" parent="1" vertex="1">
                    <mxGeometry x="1090" y="560" width="120" height="40" as="geometry"/>
                </mxCell>
                <mxCell id="52" value="GeoLoc.jsx" style="text;strokeColor=none;align=center;fillColor=none;html=1;verticalAlign=middle;whiteSpace=wrap;rounded=0;" parent="1" vertex="1">
                    <mxGeometry x="1120" y="565" width="60" height="30" as="geometry"/>
                </mxCell>
                <mxCell id="53" style="edgeStyle=orthogonalEdgeStyle;html=1;entryX=0.5;entryY=0;entryDx=0;entryDy=0;" parent="1" edge="1">
                    <mxGeometry relative="1" as="geometry">
                        <mxPoint x="570" y="520" as="sourcePoint"/>
                        <mxPoint x="1000" y="560" as="targetPoint"/>
                        <Array as="points">
                            <mxPoint x="570" y="520"/>
                            <mxPoint x="570" y="540"/>
                            <mxPoint x="1000" y="540"/>
                        </Array>
                    </mxGeometry>
                </mxCell>
                <mxCell id="54" style="edgeStyle=orthogonalEdgeStyle;html=1;entryX=0.5;entryY=0;entryDx=0;entryDy=0;" parent="1" edge="1">
                    <mxGeometry relative="1" as="geometry">
                        <mxPoint x="570" y="520" as="sourcePoint"/>
                        <mxPoint x="1150" y="560" as="targetPoint"/>
                        <Array as="points">
                            <mxPoint x="570" y="520"/>
                            <mxPoint x="570" y="540"/>
                            <mxPoint x="1150" y="540"/>
                        </Array>
                    </mxGeometry>
                </mxCell>
                <mxCell id="94" value="" style="whiteSpace=wrap;html=1;" parent="1" vertex="1">
                    <mxGeometry x="1241" y="560" width="120" height="40" as="geometry"/>
                </mxCell>
                <mxCell id="95" value="GeoLoc.jsx" style="text;strokeColor=none;align=center;fillColor=none;html=1;verticalAlign=middle;whiteSpace=wrap;rounded=0;" parent="1" vertex="1">
                    <mxGeometry x="1271" y="565" width="60" height="30" as="geometry"/>
                </mxCell>
                <mxCell id="96" style="edgeStyle=orthogonalEdgeStyle;html=1;entryX=0.5;entryY=0;entryDx=0;entryDy=0;" parent="1" edge="1">
                    <mxGeometry relative="1" as="geometry">
                        <mxPoint x="570" y="526" as="sourcePoint"/>
                        <mxPoint x="1300" y="560" as="targetPoint"/>
                        <Array as="points">
                            <mxPoint x="570" y="540"/>
                            <mxPoint x="1300" y="540"/>
                        </Array>
                    </mxGeometry>
                </mxCell>
                <mxCell id="99" value="" style="whiteSpace=wrap;html=1;" parent="1" vertex="1">
                    <mxGeometry x="1390" y="560" width="120" height="40" as="geometry"/>
                </mxCell>
                <mxCell id="374" style="edgeStyle=orthogonalEdgeStyle;html=1;exitX=0.5;exitY=1;exitDx=0;exitDy=0;" parent="1" source="100" target="299" edge="1">
                    <mxGeometry relative="1" as="geometry"/>
                </mxCell>
                <mxCell id="375" style="edgeStyle=orthogonalEdgeStyle;html=1;exitX=0.5;exitY=1;exitDx=0;exitDy=0;entryX=0.5;entryY=0;entryDx=0;entryDy=0;" parent="1" source="100" target="287" edge="1">
                    <mxGeometry relative="1" as="geometry"/>
                </mxCell>
                <mxCell id="100" value="Parameters.jsx" style="text;strokeColor=none;align=center;fillColor=none;html=1;verticalAlign=middle;whiteSpace=wrap;rounded=0;" parent="1" vertex="1">
                    <mxGeometry x="1420" y="560" width="60" height="40" as="geometry"/>
                </mxCell>
                <mxCell id="101" style="edgeStyle=orthogonalEdgeStyle;html=1;entryX=0.5;entryY=0;entryDx=0;entryDy=0;exitX=0.5;exitY=1;exitDx=0;exitDy=0;" parent="1" source="23" edge="1">
                    <mxGeometry relative="1" as="geometry">
                        <mxPoint x="720" y="526" as="sourcePoint"/>
                        <mxPoint x="1450" y="560" as="targetPoint"/>
                        <Array as="points">
                            <mxPoint x="570" y="540"/>
                            <mxPoint x="1450" y="540"/>
                        </Array>
                    </mxGeometry>
                </mxCell>
                <mxCell id="110" style="edgeStyle=orthogonalEdgeStyle;html=1;entryX=0.5;entryY=0;entryDx=0;entryDy=0;" parent="1" target="13" edge="1">
                    <mxGeometry relative="1" as="geometry">
                        <mxPoint x="470" y="260" as="sourcePoint"/>
                        <mxPoint x="360" y="310" as="targetPoint"/>
                        <Array as="points">
                            <mxPoint x="470" y="280"/>
                            <mxPoint x="370" y="280"/>
                        </Array>
                    </mxGeometry>
                </mxCell>
                <mxCell id="111" style="edgeStyle=orthogonalEdgeStyle;html=1;" parent="1" edge="1">
                    <mxGeometry relative="1" as="geometry">
                        <mxPoint x="470" y="260" as="sourcePoint"/>
                        <mxPoint x="560" y="310" as="targetPoint"/>
                        <Array as="points">
                            <mxPoint x="470" y="280"/>
                            <mxPoint x="560" y="280"/>
                            <mxPoint x="560" y="308"/>
                        </Array>
                    </mxGeometry>
                </mxCell>
                <mxCell id="116" value="&lt;font style=&quot;font-size: 18px;&quot;&gt;Architecture des pages&lt;/font&gt;" style="text;html=1;strokeColor=#FFFFCC;fillColor=none;align=center;verticalAlign=middle;whiteSpace=wrap;rounded=0;" parent="1" vertex="1">
                    <mxGeometry x="40" y="40" width="220" height="60" as="geometry"/>
                </mxCell>
                <mxCell id="117" value="&lt;font style=&quot;font-size: 18px;&quot;&gt;Architecture des composants&lt;/font&gt;" style="text;html=1;strokeColor=#FFFFCC;fillColor=none;align=center;verticalAlign=middle;whiteSpace=wrap;rounded=0;" parent="1" vertex="1">
                    <mxGeometry x="40" y="710" width="220" height="60" as="geometry"/>
                </mxCell>
                <mxCell id="119" value="" style="whiteSpace=wrap;html=1;" parent="1" vertex="1">
                    <mxGeometry x="80" y="820" width="120" height="40" as="geometry"/>
                </mxCell>
                <mxCell id="120" value="Landing.jsx" style="text;strokeColor=none;align=center;fillColor=none;html=1;verticalAlign=middle;whiteSpace=wrap;rounded=0;" parent="1" vertex="1">
                    <mxGeometry x="110" y="825" width="60" height="30" as="geometry"/>
                </mxCell>
                <mxCell id="123" value="" style="whiteSpace=wrap;html=1;" parent="1" vertex="1">
                    <mxGeometry x="80" y="860" width="120" height="140" as="geometry"/>
                </mxCell>
                <mxCell id="124" value="LandingHeader.jsx" style="text;strokeColor=none;align=center;fillColor=none;html=1;verticalAlign=middle;whiteSpace=wrap;rounded=0;" parent="1" vertex="1">
                    <mxGeometry x="85" y="870" width="110" height="30" as="geometry"/>
                </mxCell>
                <mxCell id="128" value="Presentation.jsx" style="text;strokeColor=none;align=center;fillColor=none;html=1;verticalAlign=middle;whiteSpace=wrap;rounded=0;" parent="1" vertex="1">
                    <mxGeometry x="80" y="930" width="120" height="30" as="geometry"/>
                </mxCell>
                <mxCell id="185" style="edgeStyle=none;html=1;exitX=1;exitY=0.5;exitDx=0;exitDy=0;fontSize=18;" parent="1" source="130" edge="1">
                    <mxGeometry relative="1" as="geometry">
                        <mxPoint x="680" y="150" as="targetPoint"/>
                    </mxGeometry>
                </mxCell>
                <mxCell id="130" value="" style="whiteSpace=wrap;html=1;" parent="1" vertex="1">
                    <mxGeometry x="410" y="130" width="120" height="40" as="geometry"/>
                </mxCell>
                <mxCell id="131" value="App.jsx" style="text;strokeColor=none;align=center;fillColor=none;html=1;verticalAlign=middle;whiteSpace=wrap;rounded=0;" parent="1" vertex="1">
                    <mxGeometry x="440" y="135" width="60" height="30" as="geometry"/>
                </mxCell>
                <mxCell id="132" value="" style="whiteSpace=wrap;html=1;" parent="1" vertex="1">
                    <mxGeometry x="80" y="1040" width="120" height="40" as="geometry"/>
                </mxCell>
                <mxCell id="133" value="SignUp.jsx" style="text;strokeColor=none;align=center;fillColor=none;html=1;verticalAlign=middle;whiteSpace=wrap;rounded=0;" parent="1" vertex="1">
                    <mxGeometry x="110" y="1045" width="60" height="30" as="geometry"/>
                </mxCell>
                <mxCell id="134" value="" style="whiteSpace=wrap;html=1;" parent="1" vertex="1">
                    <mxGeometry x="280" y="1040" width="120" height="40" as="geometry"/>
                </mxCell>
                <mxCell id="135" value="Login.jsx" style="text;strokeColor=none;align=center;fillColor=none;html=1;verticalAlign=middle;whiteSpace=wrap;rounded=0;" parent="1" vertex="1">
                    <mxGeometry x="310" y="1045" width="60" height="30" as="geometry"/>
                </mxCell>
                <mxCell id="136" value="" style="whiteSpace=wrap;html=1;" parent="1" vertex="1">
                    <mxGeometry x="80" y="1080" width="120" height="90" as="geometry"/>
                </mxCell>
                <mxCell id="137" value="Logo.jsx" style="text;strokeColor=none;align=center;fillColor=none;html=1;verticalAlign=middle;whiteSpace=wrap;rounded=0;" parent="1" vertex="1">
                    <mxGeometry x="85" y="1090" width="110" height="30" as="geometry"/>
                </mxCell>
                <mxCell id="138" value="" style="whiteSpace=wrap;html=1;" parent="1" vertex="1">
                    <mxGeometry x="280" y="1080" width="120" height="90" as="geometry"/>
                </mxCell>
                <mxCell id="139" value="Logo.jsx" style="text;strokeColor=none;align=center;fillColor=none;html=1;verticalAlign=middle;whiteSpace=wrap;rounded=0;" parent="1" vertex="1">
                    <mxGeometry x="285" y="1090" width="110" height="30" as="geometry"/>
                </mxCell>
                <mxCell id="140" value="SignUpForm.jsx" style="text;strokeColor=none;align=center;fillColor=none;html=1;verticalAlign=middle;whiteSpace=wrap;rounded=0;" parent="1" vertex="1">
                    <mxGeometry x="80" y="1120" width="120" height="30" as="geometry"/>
                </mxCell>
                <mxCell id="141" value="LoginForm.jsx" style="text;strokeColor=none;align=center;fillColor=none;html=1;verticalAlign=middle;whiteSpace=wrap;rounded=0;" parent="1" vertex="1">
                    <mxGeometry x="280" y="1120" width="120" height="30" as="geometry"/>
                </mxCell>
                <mxCell id="142" value="About.jsx" style="text;strokeColor=none;align=center;fillColor=none;html=1;verticalAlign=middle;whiteSpace=wrap;rounded=0;" parent="1" vertex="1">
                    <mxGeometry x="80" y="960" width="120" height="30" as="geometry"/>
                </mxCell>
                <mxCell id="143" value="((LandingNavBar))" style="text;strokeColor=none;align=center;fillColor=none;html=1;verticalAlign=middle;whiteSpace=wrap;rounded=0;" parent="1" vertex="1">
                    <mxGeometry x="80" y="900" width="120" height="30" as="geometry"/>
                </mxCell>
                <mxCell id="146" value="" style="whiteSpace=wrap;html=1;" parent="1" vertex="1">
                    <mxGeometry x="80" y="1210" width="120" height="40" as="geometry"/>
                </mxCell>
                <mxCell id="151" value="" style="whiteSpace=wrap;html=1;" parent="1" vertex="1">
                    <mxGeometry x="80" y="1380" width="190" height="40" as="geometry"/>
                </mxCell>
                <mxCell id="152" value="Home.jsx" style="text;strokeColor=none;align=center;fillColor=none;html=1;verticalAlign=middle;whiteSpace=wrap;rounded=0;" parent="1" vertex="1">
                    <mxGeometry x="145" y="1385" width="60" height="30" as="geometry"/>
                </mxCell>
                <mxCell id="153" value="" style="whiteSpace=wrap;html=1;" parent="1" vertex="1">
                    <mxGeometry x="80" y="1420" width="190" height="190" as="geometry"/>
                </mxCell>
                <mxCell id="160" value="" style="whiteSpace=wrap;html=1;" parent="1" vertex="1">
                    <mxGeometry x="80" y="1640" width="120" height="40" as="geometry"/>
                </mxCell>
                <mxCell id="161" value="Calendar.jsx" style="text;strokeColor=none;align=center;fillColor=none;html=1;verticalAlign=middle;whiteSpace=wrap;rounded=0;" parent="1" vertex="1">
                    <mxGeometry x="110" y="1645" width="60" height="30" as="geometry"/>
                </mxCell>
                <mxCell id="162" value="" style="whiteSpace=wrap;html=1;" parent="1" vertex="1">
                    <mxGeometry x="230" y="1640" width="120" height="40" as="geometry"/>
                </mxCell>
                <mxCell id="163" value="List.jsx" style="text;strokeColor=none;align=center;fillColor=none;html=1;verticalAlign=middle;whiteSpace=wrap;rounded=0;" parent="1" vertex="1">
                    <mxGeometry x="260" y="1645" width="60" height="30" as="geometry"/>
                </mxCell>
                <mxCell id="164" value="" style="whiteSpace=wrap;html=1;" parent="1" vertex="1">
                    <mxGeometry x="380" y="1640" width="120" height="40" as="geometry"/>
                </mxCell>
                <mxCell id="165" value="Budget.jsx" style="text;strokeColor=none;align=center;fillColor=none;html=1;verticalAlign=middle;whiteSpace=wrap;rounded=0;" parent="1" vertex="1">
                    <mxGeometry x="410" y="1645" width="60" height="30" as="geometry"/>
                </mxCell>
                <mxCell id="166" value="" style="whiteSpace=wrap;html=1;" parent="1" vertex="1">
                    <mxGeometry x="530" y="1640" width="120" height="40" as="geometry"/>
                </mxCell>
                <mxCell id="167" value="DocShare.jsx" style="text;strokeColor=none;align=center;fillColor=none;html=1;verticalAlign=middle;whiteSpace=wrap;rounded=0;" parent="1" vertex="1">
                    <mxGeometry x="560" y="1645" width="60" height="30" as="geometry"/>
                </mxCell>
                <mxCell id="168" value="" style="whiteSpace=wrap;html=1;" parent="1" vertex="1">
                    <mxGeometry x="680" y="1640" width="120" height="40" as="geometry"/>
                </mxCell>
                <mxCell id="169" value="Chat.jsx" style="text;strokeColor=none;align=center;fillColor=none;html=1;verticalAlign=middle;whiteSpace=wrap;rounded=0;" parent="1" vertex="1">
                    <mxGeometry x="710" y="1645" width="60" height="30" as="geometry"/>
                </mxCell>
                <mxCell id="170" value="" style="whiteSpace=wrap;html=1;" parent="1" vertex="1">
                    <mxGeometry x="830" y="1640" width="120" height="40" as="geometry"/>
                </mxCell>
                <mxCell id="171" value="Recipe.jsx" style="text;strokeColor=none;align=center;fillColor=none;html=1;verticalAlign=middle;whiteSpace=wrap;rounded=0;" parent="1" vertex="1">
                    <mxGeometry x="860" y="1645" width="60" height="30" as="geometry"/>
                </mxCell>
                <mxCell id="172" value="" style="whiteSpace=wrap;html=1;" parent="1" vertex="1">
                    <mxGeometry x="980" y="1640" width="120" height="40" as="geometry"/>
                </mxCell>
                <mxCell id="173" value="Contacts.jsx" style="text;strokeColor=none;align=center;fillColor=none;html=1;verticalAlign=middle;whiteSpace=wrap;rounded=0;" parent="1" vertex="1">
                    <mxGeometry x="1010" y="1645" width="60" height="30" as="geometry"/>
                </mxCell>
                <mxCell id="174" value="" style="whiteSpace=wrap;html=1;" parent="1" vertex="1">
                    <mxGeometry x="1130" y="1640" width="120" height="40" as="geometry"/>
                </mxCell>
                <mxCell id="175" value="GeoLoc.jsx" style="text;strokeColor=none;align=center;fillColor=none;html=1;verticalAlign=middle;whiteSpace=wrap;rounded=0;" parent="1" vertex="1">
                    <mxGeometry x="1160" y="1645" width="60" height="30" as="geometry"/>
                </mxCell>
                <mxCell id="176" value="" style="whiteSpace=wrap;html=1;" parent="1" vertex="1">
                    <mxGeometry x="1281" y="1640" width="120" height="40" as="geometry"/>
                </mxCell>
                <mxCell id="179" value="Parameters.jsx" style="text;strokeColor=none;align=center;fillColor=none;html=1;verticalAlign=middle;whiteSpace=wrap;rounded=0;" parent="1" vertex="1">
                    <mxGeometry x="1311" y="1645" width="60" height="30" as="geometry"/>
                </mxCell>
                <mxCell id="182" value="" style="whiteSpace=wrap;html=1;" parent="1" vertex="1">
                    <mxGeometry x="690" y="310" width="120" height="40" as="geometry"/>
                </mxCell>
                <mxCell id="183" value="LostPassword.jsx" style="text;strokeColor=none;align=center;fillColor=none;html=1;verticalAlign=middle;whiteSpace=wrap;rounded=0;" parent="1" vertex="1">
                    <mxGeometry x="720" y="315" width="60" height="30" as="geometry"/>
                </mxCell>
                <mxCell id="186" value="" style="whiteSpace=wrap;html=1;" parent="1" vertex="1">
                    <mxGeometry x="680" y="130" width="120" height="40" as="geometry"/>
                </mxCell>
                <mxCell id="187" value="Error404.jsx" style="text;strokeColor=none;align=center;fillColor=none;html=1;verticalAlign=middle;whiteSpace=wrap;rounded=0;" parent="1" vertex="1">
                    <mxGeometry x="710" y="135" width="60" height="30" as="geometry"/>
                </mxCell>
                <mxCell id="195" value="" style="whiteSpace=wrap;html=1;" parent="1" vertex="1">
                    <mxGeometry x="280" y="820" width="120" height="40" as="geometry"/>
                </mxCell>
                <mxCell id="196" value="Error404.jsx" style="text;strokeColor=none;align=center;fillColor=none;html=1;verticalAlign=middle;whiteSpace=wrap;rounded=0;" parent="1" vertex="1">
                    <mxGeometry x="310" y="825" width="60" height="30" as="geometry"/>
                </mxCell>
                <mxCell id="197" value="" style="whiteSpace=wrap;html=1;" parent="1" vertex="1">
                    <mxGeometry x="280" y="860" width="120" height="50" as="geometry"/>
                </mxCell>
                <mxCell id="202" value="&amp;gt; MyGroups.jsx" style="text;strokeColor=none;align=left;fillColor=none;html=1;verticalAlign=middle;whiteSpace=wrap;rounded=0;" parent="1" vertex="1">
                    <mxGeometry x="95" y="1450" width="105" height="30" as="geometry"/>
                </mxCell>
                <mxCell id="204" value="" style="whiteSpace=wrap;html=1;" parent="1" vertex="1">
                    <mxGeometry x="230" y="1680" width="120" height="250" as="geometry"/>
                </mxCell>
                <mxCell id="205" value="RecipesCategories.jsx" style="text;strokeColor=none;align=center;fillColor=none;html=1;verticalAlign=middle;whiteSpace=wrap;rounded=0;fontStyle=0" parent="1" vertex="1">
                    <mxGeometry x="230" y="1709" width="120" height="30" as="geometry"/>
                </mxCell>
                <mxCell id="208" value="ListFileParameters.jsx" style="text;strokeColor=none;align=center;fillColor=none;html=1;verticalAlign=middle;whiteSpace=wrap;rounded=0;fontStyle=0" parent="1" vertex="1">
                    <mxGeometry x="230" y="1833" width="120" height="30" as="geometry"/>
                </mxCell>
                <mxCell id="220" value="" style="whiteSpace=wrap;html=1;" parent="1" vertex="1">
                    <mxGeometry x="380" y="1679" width="120" height="150" as="geometry"/>
                </mxCell>
                <mxCell id="221" value="BudgetOverview.jsx" style="text;strokeColor=none;align=center;fillColor=none;html=1;verticalAlign=middle;whiteSpace=wrap;rounded=0;fontStyle=0" parent="1" vertex="1">
                    <mxGeometry x="380" y="1679" width="120" height="30" as="geometry"/>
                </mxCell>
                <mxCell id="222" value="CreateBudget.jsx" style="text;strokeColor=none;align=center;fillColor=none;html=1;verticalAlign=middle;whiteSpace=wrap;rounded=0;fontStyle=0" parent="1" vertex="1">
                    <mxGeometry x="380" y="1709" width="120" height="30" as="geometry"/>
                </mxCell>
                <mxCell id="223" value="BudgetDetails.jsx" style="text;strokeColor=none;align=center;fillColor=none;html=1;verticalAlign=middle;whiteSpace=wrap;rounded=0;fontStyle=0" parent="1" vertex="1">
                    <mxGeometry x="380" y="1769" width="120" height="30" as="geometry"/>
                </mxCell>
                <mxCell id="224" value="DetailsSortFilter.jsx" style="text;strokeColor=none;align=center;fillColor=none;html=1;verticalAlign=middle;whiteSpace=wrap;rounded=0;fontStyle=0" parent="1" vertex="1">
                    <mxGeometry x="380" y="1739" width="120" height="30" as="geometry"/>
                </mxCell>
                <mxCell id="225" value="" style="whiteSpace=wrap;html=1;" parent="1" vertex="1">
                    <mxGeometry x="530" y="1680" width="120" height="220" as="geometry"/>
                </mxCell>
                <mxCell id="226" value="IndexListFile.jsx" style="text;strokeColor=none;align=center;fillColor=none;html=1;verticalAlign=middle;whiteSpace=wrap;rounded=0;fontStyle=0" parent="1" vertex="1">
                    <mxGeometry x="530" y="1680" width="120" height="30" as="geometry"/>
                </mxCell>
                <mxCell id="231" value="&amp;gt; Button.jsx" style="text;strokeColor=none;align=center;fillColor=none;html=1;verticalAlign=middle;whiteSpace=wrap;rounded=0;fontStyle=0" parent="1" vertex="1">
                    <mxGeometry x="530" y="1838" width="120" height="30" as="geometry"/>
                </mxCell>
                <mxCell id="234" value="CreateListFile.jsx" style="text;strokeColor=none;align=center;fillColor=none;html=1;verticalAlign=middle;whiteSpace=wrap;rounded=0;fontStyle=0" parent="1" vertex="1">
                    <mxGeometry x="530" y="1719" width="120" height="30" as="geometry"/>
                </mxCell>
                <mxCell id="235" value="ListFileParameters.jsx" style="text;strokeColor=none;align=center;fillColor=none;html=1;verticalAlign=middle;whiteSpace=wrap;rounded=0;fontStyle=0" parent="1" vertex="1">
                    <mxGeometry x="530" y="1749" width="120" height="30" as="geometry"/>
                </mxCell>
                <mxCell id="236" value="ListFileUpload.jsx" style="text;strokeColor=none;align=center;fillColor=none;html=1;verticalAlign=middle;whiteSpace=wrap;rounded=0;fontStyle=0" parent="1" vertex="1">
                    <mxGeometry x="530" y="1778" width="120" height="30" as="geometry"/>
                </mxCell>
                <mxCell id="237" value="&amp;gt; Card.jsx" style="text;strokeColor=none;align=center;fillColor=none;html=1;verticalAlign=middle;whiteSpace=wrap;rounded=0;fontStyle=0" parent="1" vertex="1">
                    <mxGeometry x="530" y="1808" width="120" height="30" as="geometry"/>
                </mxCell>
                <mxCell id="238" value="&amp;gt; Button.jsx" style="text;strokeColor=none;align=center;fillColor=none;html=1;verticalAlign=middle;whiteSpace=wrap;rounded=0;fontStyle=0" parent="1" vertex="1">
                    <mxGeometry x="530" y="1700" width="120" height="30" as="geometry"/>
                </mxCell>
                <mxCell id="239" value="CreateListFile.jsx" style="text;strokeColor=none;align=center;fillColor=none;html=1;verticalAlign=middle;whiteSpace=wrap;rounded=0;fontStyle=0" parent="1" vertex="1">
                    <mxGeometry x="230" y="1774" width="120" height="30" as="geometry"/>
                </mxCell>
                <mxCell id="240" value="ModifyList.jsx" style="text;strokeColor=none;align=center;fillColor=none;html=1;verticalAlign=middle;whiteSpace=wrap;rounded=0;fontStyle=0" parent="1" vertex="1">
                    <mxGeometry x="230" y="1803" width="120" height="30" as="geometry"/>
                </mxCell>
                <mxCell id="241" value="&amp;gt; Button.jsx" style="text;strokeColor=none;align=center;fillColor=none;html=1;verticalAlign=middle;whiteSpace=wrap;rounded=0;fontStyle=0" parent="1" vertex="1">
                    <mxGeometry x="230" y="1739" width="120" height="30" as="geometry"/>
                </mxCell>
                <mxCell id="242" value="" style="whiteSpace=wrap;html=1;" parent="1" vertex="1">
                    <mxGeometry x="680" y="1680" width="120" height="90" as="geometry"/>
                </mxCell>
                <mxCell id="243" value="IndexListFile.jsx" style="text;strokeColor=none;align=center;fillColor=none;html=1;verticalAlign=middle;whiteSpace=wrap;rounded=0;fontStyle=0" parent="1" vertex="1">
                    <mxGeometry x="680" y="1680" width="120" height="30" as="geometry"/>
                </mxCell>
                <mxCell id="244" value="&amp;gt; Button.jsx" style="text;strokeColor=none;align=center;fillColor=none;html=1;verticalAlign=middle;whiteSpace=wrap;rounded=0;fontStyle=0" parent="1" vertex="1">
                    <mxGeometry x="680" y="1700" width="120" height="30" as="geometry"/>
                </mxCell>
                <mxCell id="245" value="ChatBox.jsx" style="text;strokeColor=none;align=center;fillColor=none;html=1;verticalAlign=middle;whiteSpace=wrap;rounded=0;fontStyle=0" parent="1" vertex="1">
                    <mxGeometry x="680" y="1718.5" width="120" height="30" as="geometry"/>
                </mxCell>
                <mxCell id="246" value="&amp;gt; Button.jsx" style="text;strokeColor=none;align=center;fillColor=none;html=1;verticalAlign=middle;whiteSpace=wrap;rounded=0;fontStyle=0" parent="1" vertex="1">
                    <mxGeometry x="680" y="1739" width="120" height="30" as="geometry"/>
                </mxCell>
                <mxCell id="247" value="" style="whiteSpace=wrap;html=1;" parent="1" vertex="1">
                    <mxGeometry x="830" y="1680" width="120" height="150" as="geometry"/>
                </mxCell>
                <mxCell id="248" value="IndexListFile.jsx" style="text;strokeColor=none;align=center;fillColor=none;html=1;verticalAlign=middle;whiteSpace=wrap;rounded=0;fontStyle=0" parent="1" vertex="1">
                    <mxGeometry x="827" y="1680" width="120" height="30" as="geometry"/>
                </mxCell>
                <mxCell id="249" value="&amp;gt; Button.jsx" style="text;strokeColor=none;align=center;fillColor=none;html=1;verticalAlign=middle;whiteSpace=wrap;rounded=0;fontStyle=0" parent="1" vertex="1">
                    <mxGeometry x="830" y="1700" width="120" height="30" as="geometry"/>
                </mxCell>
                <mxCell id="250" value="RecipeDetails.jsx" style="text;strokeColor=none;align=center;fillColor=none;html=1;verticalAlign=middle;whiteSpace=wrap;rounded=0;fontStyle=0" parent="1" vertex="1">
                    <mxGeometry x="830" y="1724" width="120" height="30" as="geometry"/>
                </mxCell>
                <mxCell id="252" value="CreateRecipe.jsx" style="text;strokeColor=none;align=center;fillColor=none;html=1;verticalAlign=middle;whiteSpace=wrap;rounded=0;fontStyle=0" parent="1" vertex="1">
                    <mxGeometry x="830" y="1754" width="120" height="30" as="geometry"/>
                </mxCell>
                <mxCell id="253" value="" style="whiteSpace=wrap;html=1;" parent="1" vertex="1">
                    <mxGeometry x="980" y="1680" width="120" height="150" as="geometry"/>
                </mxCell>
                <mxCell id="254" value="IndexListFile.jsx" style="text;strokeColor=none;align=center;fillColor=none;html=1;verticalAlign=middle;whiteSpace=wrap;rounded=0;fontStyle=0" parent="1" vertex="1">
                    <mxGeometry x="978.5" y="1679" width="120" height="30" as="geometry"/>
                </mxCell>
                <mxCell id="255" value="&amp;gt; Button.jsx" style="text;strokeColor=none;align=center;fillColor=none;html=1;verticalAlign=middle;whiteSpace=wrap;rounded=0;fontStyle=0" parent="1" vertex="1">
                    <mxGeometry x="981.5" y="1699" width="120" height="30" as="geometry"/>
                </mxCell>
                <mxCell id="257" value="CreateContact.jsx" style="text;strokeColor=none;align=center;fillColor=none;html=1;verticalAlign=middle;whiteSpace=wrap;rounded=0;fontStyle=0" parent="1" vertex="1">
                    <mxGeometry x="980" y="1750" width="120" height="30" as="geometry"/>
                </mxCell>
                <mxCell id="258" value="ContactDetails.jsx" style="text;strokeColor=none;align=center;fillColor=none;html=1;verticalAlign=middle;whiteSpace=wrap;rounded=0;fontStyle=0" parent="1" vertex="1">
                    <mxGeometry x="981.5" y="1724" width="120" height="30" as="geometry"/>
                </mxCell>
                <mxCell id="259" value="" style="whiteSpace=wrap;html=1;" parent="1" vertex="1">
                    <mxGeometry x="1130" y="1680" width="120" height="60" as="geometry"/>
                </mxCell>
                <mxCell id="260" value="Map.jsx" style="text;strokeColor=none;align=center;fillColor=none;html=1;verticalAlign=middle;whiteSpace=wrap;rounded=0;" parent="1" vertex="1">
                    <mxGeometry x="1160" y="1680" width="60" height="30" as="geometry"/>
                </mxCell>
                <mxCell id="262" value="" style="whiteSpace=wrap;html=1;" parent="1" vertex="1">
                    <mxGeometry x="1281" y="1680" width="120" height="60" as="geometry"/>
                </mxCell>
                <mxCell id="261" value="IndexListFile.jsx" style="text;strokeColor=none;align=center;fillColor=none;html=1;verticalAlign=middle;whiteSpace=wrap;rounded=0;fontStyle=0" parent="1" vertex="1">
                    <mxGeometry x="1281" y="1680" width="120" height="30" as="geometry"/>
                </mxCell>
                <mxCell id="268" value="" style="group" parent="1" vertex="1" connectable="0">
                    <mxGeometry x="70" y="2543" width="430" height="380" as="geometry"/>
                </mxCell>
                <mxCell id="210" value="" style="whiteSpace=wrap;html=1;" parent="268" vertex="1">
                    <mxGeometry y="30" width="430" height="350" as="geometry"/>
                </mxCell>
                <mxCell id="211" value="Budget.jsx" style="text;strokeColor=none;align=center;fillColor=none;html=1;verticalAlign=middle;whiteSpace=wrap;rounded=0;" parent="268" vertex="1">
                    <mxGeometry width="60" height="30" as="geometry"/>
                </mxCell>
                <mxCell id="212" value="tableau de bord" style="text;strokeColor=none;align=center;fillColor=none;html=1;verticalAlign=middle;whiteSpace=wrap;rounded=0;" parent="268" vertex="1">
                    <mxGeometry x="160" y="80" width="110" height="30" as="geometry"/>
                </mxCell>
                <mxCell id="213" value="graphique ou tableau par catégorie ?" style="text;strokeColor=none;align=center;fillColor=none;html=1;verticalAlign=middle;whiteSpace=wrap;rounded=0;" parent="268" vertex="1">
                    <mxGeometry x="20" y="120" width="120" height="30" as="geometry"/>
                </mxCell>
                <mxCell id="214" value="total ou&lt;br&gt;total mensuel ou annuel" style="text;strokeColor=none;align=center;fillColor=none;html=1;verticalAlign=middle;whiteSpace=wrap;rounded=0;" parent="268" vertex="1">
                    <mxGeometry x="160" y="120" width="120" height="30" as="geometry"/>
                </mxCell>
                <mxCell id="215" value="filter + order by catégorie / date / membre / montant" style="text;strokeColor=none;align=center;fillColor=none;html=1;verticalAlign=middle;whiteSpace=wrap;rounded=0;" parent="268" vertex="1">
                    <mxGeometry y="210" width="430" height="30" as="geometry"/>
                </mxCell>
                <mxCell id="216" value="liste dépenses" style="text;strokeColor=none;align=center;fillColor=none;html=1;verticalAlign=middle;whiteSpace=wrap;rounded=0;" parent="268" vertex="1">
                    <mxGeometry x="5" y="250" width="425" height="130" as="geometry"/>
                </mxCell>
                <mxCell id="217" value="12 euros" style="text;strokeColor=none;align=center;fillColor=none;html=1;verticalAlign=middle;whiteSpace=wrap;rounded=0;" parent="268" vertex="1">
                    <mxGeometry x="290" y="120" width="120" height="30" as="geometry"/>
                </mxCell>
                <mxCell id="218" value="select budget / create new budget" style="text;strokeColor=none;align=center;fillColor=none;html=1;verticalAlign=middle;whiteSpace=wrap;rounded=0;" parent="268" vertex="1">
                    <mxGeometry x="10" y="40" width="110" height="30" as="geometry"/>
                </mxCell>
                <mxCell id="270" value="Mon budget total : 50 euros" style="text;strokeColor=none;align=center;fillColor=none;html=1;verticalAlign=middle;whiteSpace=wrap;rounded=0;" parent="268" vertex="1">
                    <mxGeometry x="290" y="90" width="120" height="30" as="geometry"/>
                </mxCell>
                <mxCell id="271" value="CreateCategories.jsx" style="text;strokeColor=none;align=center;fillColor=none;html=1;verticalAlign=middle;whiteSpace=wrap;rounded=0;fontStyle=0" parent="1" vertex="1">
                    <mxGeometry x="230" y="1862.5" width="120" height="30" as="geometry"/>
                </mxCell>
                <mxCell id="272" value="CreateCategories.jsx" style="text;strokeColor=none;align=center;fillColor=none;html=1;verticalAlign=middle;whiteSpace=wrap;rounded=0;fontStyle=0" parent="1" vertex="1">
                    <mxGeometry x="380" y="1798.5" width="120" height="30" as="geometry"/>
                </mxCell>
                <mxCell id="273" value="CreateCategories.jsx" style="text;strokeColor=none;align=center;fillColor=none;html=1;verticalAlign=middle;whiteSpace=wrap;rounded=0;fontStyle=0" parent="1" vertex="1">
                    <mxGeometry x="530" y="1868" width="120" height="30" as="geometry"/>
                </mxCell>
                <mxCell id="274" value="CreateCategories.jsx" style="text;strokeColor=none;align=center;fillColor=none;html=1;verticalAlign=middle;whiteSpace=wrap;rounded=0;fontStyle=0" parent="1" vertex="1">
                    <mxGeometry x="830" y="1785" width="120" height="30" as="geometry"/>
                </mxCell>
                <mxCell id="275" value="CreateCategories.jsx" style="text;strokeColor=none;align=center;fillColor=none;html=1;verticalAlign=middle;whiteSpace=wrap;rounded=0;fontStyle=0" parent="1" vertex="1">
                    <mxGeometry x="980" y="1780" width="120" height="30" as="geometry"/>
                </mxCell>
                <mxCell id="281" value="Group.jsx" style="text;strokeColor=none;align=center;fillColor=none;html=1;verticalAlign=middle;whiteSpace=wrap;rounded=0;fontStyle=0" parent="1" vertex="1">
                    <mxGeometry x="1500" y="685" width="120" height="30" as="geometry"/>
                </mxCell>
                <mxCell id="285" value="Profile.jsx" style="text;strokeColor=none;align=center;fillColor=none;html=1;verticalAlign=middle;whiteSpace=wrap;rounded=0;fontStyle=0" parent="1" vertex="1">
                    <mxGeometry x="1290" y="685" width="120" height="30" as="geometry"/>
                </mxCell>
                <mxCell id="318" value="" style="whiteSpace=wrap;html=1;" parent="1" vertex="1">
                    <mxGeometry x="80" y="1980" width="120" height="40" as="geometry"/>
                </mxCell>
                <mxCell id="319" value="Profile.jsx" style="text;strokeColor=none;align=center;fillColor=none;html=1;verticalAlign=middle;whiteSpace=wrap;rounded=0;" parent="1" vertex="1">
                    <mxGeometry x="110" y="1985" width="60" height="30" as="geometry"/>
                </mxCell>
                <mxCell id="322" value="" style="whiteSpace=wrap;html=1;" parent="1" vertex="1">
                    <mxGeometry x="220" y="1980" width="120" height="40" as="geometry"/>
                </mxCell>
                <mxCell id="324" value="" style="whiteSpace=wrap;html=1;" parent="1" vertex="1">
                    <mxGeometry x="80" y="2019" width="120" height="171" as="geometry"/>
                </mxCell>
                <mxCell id="329" value="" style="whiteSpace=wrap;html=1;" parent="1" vertex="1">
                    <mxGeometry x="220" y="2019" width="120" height="171" as="geometry"/>
                </mxCell>
                <mxCell id="339" value="ModifyProfile.jsx" style="text;strokeColor=none;align=center;fillColor=none;html=1;verticalAlign=middle;whiteSpace=wrap;rounded=0;" parent="1" vertex="1">
                    <mxGeometry x="95" y="2030" width="90" height="30" as="geometry"/>
                </mxCell>
                <mxCell id="347" value="Password.jsx" style="text;strokeColor=none;align=center;fillColor=none;html=1;verticalAlign=middle;whiteSpace=wrap;rounded=0;fontStyle=0" parent="1" vertex="1">
                    <mxGeometry x="80" y="2060" width="120" height="30" as="geometry"/>
                </mxCell>
                <mxCell id="348" value="Group.jsx" style="text;strokeColor=none;align=center;fillColor=none;html=1;verticalAlign=middle;whiteSpace=wrap;rounded=0;fontStyle=0" parent="1" vertex="1">
                    <mxGeometry x="220" y="1985" width="120" height="30" as="geometry"/>
                </mxCell>
                <mxCell id="349" value="GroupMembers.jsx" style="text;strokeColor=none;align=center;fillColor=none;html=1;verticalAlign=middle;whiteSpace=wrap;rounded=0;fontStyle=0" parent="1" vertex="1">
                    <mxGeometry x="220" y="2030" width="120" height="30" as="geometry"/>
                </mxCell>
                <mxCell id="350" value="MembersRoles.jsx" style="text;strokeColor=none;align=center;fillColor=none;html=1;verticalAlign=middle;whiteSpace=wrap;rounded=0;fontStyle=0" parent="1" vertex="1">
                    <mxGeometry x="220" y="2060" width="120" height="30" as="geometry"/>
                </mxCell>
                <mxCell id="364" value="Notifications.jsx" style="text;strokeColor=none;align=center;fillColor=none;html=1;verticalAlign=middle;whiteSpace=wrap;rounded=0;fontStyle=0" parent="1" vertex="1">
                    <mxGeometry x="80" y="2089.5" width="120" height="30" as="geometry"/>
                </mxCell>
                <mxCell id="150" value="Header.jsx" style="text;strokeColor=none;align=center;fillColor=none;html=1;verticalAlign=middle;whiteSpace=wrap;rounded=0;" parent="1" vertex="1">
                    <mxGeometry x="80" y="1680" width="120" height="30" as="geometry"/>
                </mxCell>
                <mxCell id="382" value="Header.jsx" style="text;strokeColor=none;align=center;fillColor=none;html=1;verticalAlign=middle;whiteSpace=wrap;rounded=0;" parent="1" vertex="1">
                    <mxGeometry x="230" y="1680" width="120" height="30" as="geometry"/>
                </mxCell>
                <mxCell id="384" value="&lt;br&gt;titre &quot;Ex : Mes recettes&quot;&lt;br&gt;Icon de la fonctionnalité : &quot;Ex : icon recette&quot;" style="text;whiteSpace=wrap;html=1;" parent="1" vertex="1">
                    <mxGeometry x="470" y="1360" width="300" height="95" as="geometry"/>
                </mxCell>
                <mxCell id="388" value="" style="whiteSpace=wrap;html=1;" parent="1" vertex="1">
                    <mxGeometry x="470" y="1240" width="650" height="110" as="geometry"/>
                </mxCell>
                <mxCell id="389" value="&lt;span style=&quot;color: rgb(240, 240, 240); font-family: Helvetica; font-size: 12px; font-style: normal; font-variant-ligatures: normal; font-variant-caps: normal; font-weight: 400; letter-spacing: normal; orphans: 2; text-align: left; text-indent: 0px; text-transform: none; widows: 2; word-spacing: 0px; -webkit-text-stroke-width: 0px; background-color: rgb(42, 37, 47); text-decoration-thickness: initial; text-decoration-style: initial; text-decoration-color: initial; float: none; display: inline !important;&quot;&gt;Composant Icon Home&lt;br&gt;&lt;/span&gt;(retour vers Home.jsx)" style="text;whiteSpace=wrap;html=1;" parent="1" vertex="1">
                    <mxGeometry x="477" y="1245" width="143" height="40" as="geometry"/>
                </mxCell>
                <mxCell id="390" value="&lt;span style=&quot;color: rgb(240, 240, 240); font-family: Helvetica; font-size: 12px; font-style: normal; font-variant-ligatures: normal; font-variant-caps: normal; font-weight: 400; letter-spacing: normal; orphans: 2; text-align: left; text-indent: 0px; text-transform: none; widows: 2; word-spacing: 0px; -webkit-text-stroke-width: 0px; background-color: rgb(42, 37, 47); text-decoration-thickness: initial; text-decoration-style: initial; text-decoration-color: initial; float: none; display: inline !important;&quot;&gt;Composant MesGroupes.jsx&amp;nbsp;&lt;/span&gt;" style="text;whiteSpace=wrap;html=1;" parent="1" vertex="1">
                    <mxGeometry x="640" y="1245" width="100" height="40" as="geometry"/>
                </mxCell>
                <mxCell id="391" value="&lt;span style=&quot;color: rgb(240, 240, 240); font-family: Helvetica; font-size: 12px; font-style: normal; font-variant-ligatures: normal; font-variant-caps: normal; font-weight: 400; letter-spacing: normal; orphans: 2; text-align: left; text-indent: 0px; text-transform: none; widows: 2; word-spacing: 0px; -webkit-text-stroke-width: 0px; background-color: rgb(42, 37, 47); text-decoration-thickness: initial; text-decoration-style: initial; text-decoration-color: initial; float: none; display: inline !important;&quot;&gt;titre={fonctionnalité}&lt;br&gt;Ex : &quot;Mes recettes&quot;&lt;br&gt;&lt;/span&gt;" style="text;whiteSpace=wrap;html=1;" parent="1" vertex="1">
                    <mxGeometry x="788.5" y="1245" width="121.5" height="40" as="geometry"/>
                </mxCell>
                <mxCell id="392" value="&lt;span style=&quot;color: rgb(240, 240, 240); font-family: Helvetica; font-size: 12px; font-style: normal; font-variant-ligatures: normal; font-variant-caps: normal; font-weight: 400; letter-spacing: normal; orphans: 2; text-align: left; text-indent: 0px; text-transform: none; widows: 2; word-spacing: 0px; -webkit-text-stroke-width: 0px; background-color: rgb(42, 37, 47); text-decoration-thickness: initial; text-decoration-style: initial; text-decoration-color: initial; float: none; display: inline !important;&quot;&gt;icon={icon}&lt;br&gt;Ex : &quot;Icon recettes&quot;&lt;br&gt;&lt;/span&gt;" style="text;whiteSpace=wrap;html=1;" parent="1" vertex="1">
                    <mxGeometry x="990" y="1245" width="121.5" height="40" as="geometry"/>
                </mxCell>
                <mxCell id="406" value="Header.jsx" style="text;strokeColor=none;align=left;fillColor=none;html=1;verticalAlign=middle;whiteSpace=wrap;rounded=0;" parent="1" vertex="1">
                    <mxGeometry x="95" y="1420" width="120" height="30" as="geometry"/>
                </mxCell>
                <mxCell id="407" value="ListFunctionnalities.jsx" style="text;strokeColor=none;align=left;fillColor=none;html=1;verticalAlign=middle;whiteSpace=wrap;rounded=0;" parent="1" vertex="1">
                    <mxGeometry x="95" y="1510" width="110" height="30" as="geometry"/>
                </mxCell>
                <mxCell id="409" value="&amp;gt; IconProfilParams.jsx" style="text;strokeColor=none;align=left;fillColor=none;html=1;verticalAlign=middle;whiteSpace=wrap;rounded=0;" parent="1" vertex="1">
                    <mxGeometry x="95" y="1480" width="125" height="30" as="geometry"/>
                </mxCell>
                <mxCell id="410" value="" style="whiteSpace=wrap;html=1;" parent="1" vertex="1">
                    <mxGeometry x="707" y="1900" width="120" height="40" as="geometry"/>
                </mxCell>
                <mxCell id="411" value="List.jsx" style="text;strokeColor=none;align=center;fillColor=none;html=1;verticalAlign=middle;whiteSpace=wrap;rounded=0;" parent="1" vertex="1">
                    <mxGeometry x="737" y="1905" width="60" height="30" as="geometry"/>
                </mxCell>
                <mxCell id="412" value="" style="whiteSpace=wrap;html=1;" parent="1" vertex="1">
                    <mxGeometry x="707" y="1940" width="120" height="250" as="geometry"/>
                </mxCell>
                <mxCell id="413" value="IndexListFile.jsx" style="text;strokeColor=none;align=center;fillColor=none;html=1;verticalAlign=middle;whiteSpace=wrap;rounded=0;fontStyle=0" parent="1" vertex="1">
                    <mxGeometry x="707" y="1994.5" width="120" height="30" as="geometry"/>
                </mxCell>
                <mxCell id="414" value="ListFileParameters.jsx" style="text;strokeColor=none;align=center;fillColor=none;html=1;verticalAlign=middle;whiteSpace=wrap;rounded=0;fontStyle=0" parent="1" vertex="1">
                    <mxGeometry x="707" y="2093" width="120" height="30" as="geometry"/>
                </mxCell>
                <mxCell id="415" value="CreateListFile.jsx" style="text;strokeColor=none;align=center;fillColor=none;html=1;verticalAlign=middle;whiteSpace=wrap;rounded=0;fontStyle=0" parent="1" vertex="1">
                    <mxGeometry x="707" y="2034" width="120" height="30" as="geometry"/>
                </mxCell>
                <mxCell id="416" value="ModifyList.jsx" style="text;strokeColor=none;align=center;fillColor=none;html=1;verticalAlign=middle;whiteSpace=wrap;rounded=0;fontStyle=0" parent="1" vertex="1">
                    <mxGeometry x="707" y="2063" width="120" height="30" as="geometry"/>
                </mxCell>
                <mxCell id="417" value="&amp;gt; Button.jsx" style="text;strokeColor=none;align=center;fillColor=none;html=1;verticalAlign=middle;whiteSpace=wrap;rounded=0;fontStyle=0" parent="1" vertex="1">
                    <mxGeometry x="707" y="2014.5" width="120" height="30" as="geometry"/>
                </mxCell>
                <mxCell id="418" value="CreateCategories.jsx" style="text;strokeColor=none;align=center;fillColor=none;html=1;verticalAlign=middle;whiteSpace=wrap;rounded=0;fontStyle=0" parent="1" vertex="1">
                    <mxGeometry x="707" y="2122.5" width="120" height="30" as="geometry"/>
                </mxCell>
                <mxCell id="419" value="Header.jsx" style="text;strokeColor=none;align=center;fillColor=none;html=1;verticalAlign=middle;whiteSpace=wrap;rounded=0;" parent="1" vertex="1">
                    <mxGeometry x="707" y="1940" width="120" height="30" as="geometry"/>
                </mxCell>
                <mxCell id="420" value="" style="whiteSpace=wrap;html=1;" parent="1" vertex="1">
                    <mxGeometry x="947" y="2350" width="650" height="470" as="geometry"/>
                </mxCell>
                <mxCell id="422" value="Recipe.jsx" style="text;whiteSpace=wrap;html=1;" parent="1" vertex="1">
                    <mxGeometry x="947" y="2350" width="143" height="40" as="geometry"/>
                </mxCell>
                <mxCell id="423" value="" style="whiteSpace=wrap;html=1;" parent="1" vertex="1">
                    <mxGeometry x="957" y="2380" width="623" height="70" as="geometry"/>
                </mxCell>
                <mxCell id="424" value="Header.jsx" style="text;whiteSpace=wrap;html=1;" parent="1" vertex="1">
                    <mxGeometry x="967" y="2390" width="143" height="40" as="geometry"/>
                </mxCell>
                <mxCell id="425" value="" style="whiteSpace=wrap;html=1;" parent="1" vertex="1">
                    <mxGeometry x="957" y="2473" width="623" height="327" as="geometry"/>
                </mxCell>
                <mxCell id="426" value="RecipesCategories.jsx" style="text;whiteSpace=wrap;html=1;" parent="1" vertex="1">
                    <mxGeometry x="968.5" y="2480" width="143" height="40" as="geometry"/>
                </mxCell>
                <mxCell id="427" value="" style="whiteSpace=wrap;html=1;" parent="1" vertex="1">
                    <mxGeometry x="1280" y="2510" width="280" height="280" as="geometry"/>
                </mxCell>
                <mxCell id="428" value="DisplayRecipe.jsx" style="text;whiteSpace=wrap;html=1;" parent="1" vertex="1">
                    <mxGeometry x="1290" y="2510" width="143" height="40" as="geometry"/>
                </mxCell>
            </root>
        </mxGraphModel>
    </diagram>
</mxfile>